Coordinates
version=1
nRows=29
nColumns=24
inDegrees=yes

Units are S.I. units (second, meters, Newtons, ...)
Angles are in degrees.

endheader
time	pelvis_tilt	pelvis_list	pelvis_rotation	pelvis_tx	pelvis_ty	pelvis_tz	hip_flexion_r	hip_adduction_r	hip_rotation_r	knee_angle_r	ankle_angle_r	subtalar_angle_r	mtp_angle_r	hip_flexion_l	hip_adduction_l	hip_rotation_l	knee_angle_l	ankle_angle_l	subtalar_angle_l	mtp_angle_l	lumbar_extension	lumbar_bending	lumbar_rotation
      1.01000000	     24.08625756	     -5.10167924	     -1.59043733	     -0.46610392	      0.88023082	     -0.01709797	    -48.26002022	      5.13119962	     14.21428582	      1.81559990	     14.49960768	      9.96922034	     30.48220701	      0.37557729	     -1.63852975	     16.53041270	     -7.00728862	     -4.04226601	    -39.80118783	     32.27124919	    -32.83827739	      5.75574704	      8.84139403
      1.01500000	     24.03867310	     -5.04526796	     -1.78385846	     -0.45880158	      0.87992622	     -0.01704571	    -48.32881912	      4.97990765	     13.99492284	      1.06593179	     14.41286350	     10.49263528	     30.69949561	      0.24358881	     -1.42944989	     16.18833784	     -7.43180000	     -4.44330247	    -39.54069031	     32.29262110	    -32.73841689	      5.52984468	      8.92330257
      1.02000000	     23.99287263	     -4.98715905	     -1.96224497	     -0.45145729	      0.87971835	     -0.01696234	    -48.35770398	      4.84200899	     13.74239175	      0.23999941	     14.27435677	     11.09737553	     31.05127128	      0.09613305	     -1.22750974	     15.86821770	     -7.86776055	     -4.87815093	    -39.26014437	     32.32033015	    -32.63556741	      5.30121054	      8.99114839
      1.02500000	     23.95231206	     -4.93873117	     -2.14084158	     -0.44407699	      0.87964279	     -0.01681117	    -48.34007138	      4.71878747	     13.46487400	     -0.68056388	     14.05580789	     11.74837906	     31.56470354	     -0.07892259	     -1.04925714	     15.56791920	     -8.29570814	     -5.34366526	    -38.99217520	     32.34234778	    -32.53595469	      5.07099743	      9.04870372
      1.03000000	     23.92570926	     -4.89427190	     -2.32121494	     -0.43668459	      0.87971367	     -0.01660354	    -48.28486480	      4.60186681	     13.19495718	     -1.69105026	     13.75788706	     12.40175131	     32.20106937	     -0.28759219	     -0.88654074	     15.26805302	     -8.71216455	     -5.84889811	    -38.75087025	     32.34470775	    -32.45024955	      4.83587883	      9.11465554
      1.03500000	     23.83449210	     -4.87421639	     -2.45727212	     -0.42928427	      0.87982741	     -0.01640780	    -48.12031346	      4.54805196	     12.96443186	     -2.73643630	     13.12504056	     12.71900201	     35.71295606	     -0.41763512	     -0.75998175	     15.09076200	     -9.16016221	     -6.33943974	    -38.51971252	     32.29196663	    -32.29508384	      4.64362013	      9.15990716
      1.04000000	     23.91506294	     -4.81286483	     -2.66745724	     -0.42191040	      0.88030769	     -0.01600937	    -48.07683021	      4.40078139	     12.69960823	     -3.91184418	     12.67398453	     13.35079831	     35.97920604	     -0.80802853	     -0.60941113	     14.75986650	     -9.48529794	     -6.90329821	    -38.25537568	     32.25726925	    -32.32602346	      4.34585908	      9.24934666
      1.04500000	     23.90492304	     -4.76636168	     -2.82876946	     -0.41450020	      0.88080093	     -0.01565101	    -47.82812665	      4.31523538	     12.28226721	     -5.29386092	     12.19808894	     14.30507672	     36.49408017	     -1.08953742	     -0.48292277	     14.54791790	     -9.84581034	     -7.37622706	    -37.98197859	     32.20237400	    -32.25588150	      4.08970883	      9.28195729
      1.05000000	     23.92443150	     -4.71586690	     -2.96106281	     -0.40714761	      0.88144085	     -0.01526090	    -47.57186095	      4.25161997	     11.88846887	     -6.69534322	     11.38545595	     14.82179400	     39.93465563	     -1.41164621	     -0.36346978	     14.41987832	    -10.20081398	     -7.75327444	    -37.57831232	     31.65165483	    -32.22213708	      3.83007868	      9.30506267
      1.05500000	     23.98339685	     -4.63421547	     -3.14098864	     -0.39975636	      0.88227008	     -0.01476312	    -47.26964898	      4.12204303	     11.39065543	     -8.27562276	     10.67820837	     15.79222006	     40.23012340	     -1.81694905	     -0.21935070	     14.20511132	    -10.49871756	     -8.17318252	    -37.28078056	     31.58373688	    -32.22499932	      3.50680426	      9.34421839
      1.06000000	     24.02159883	     -4.54319553	     -3.28711487	     -0.39238888	      0.88316474	     -0.01429867	    -46.85693096	      4.00524410	     10.77442206	    -10.00205045	      9.89978850	     16.89163243	     40.71673771	     -2.20346158	     -0.07059918	     14.08543216	    -10.79676105	     -8.51368337	    -36.93593127	     31.48257820	    -32.20526604	      3.19163858	      9.34901657
      1.06500000	     24.08544511	     -4.43144162	     -3.42846553	     -0.38504410	      0.88417560	     -0.01380202	    -46.40093175	      3.86460924	     10.07862048	    -11.83139380	      8.98918488	     17.99979330	     41.32995201	     -2.63957085	      0.09367638	     13.98510570	    -11.06214264	     -8.79019707	    -36.58194840	     31.34236709	    -32.21400407	      2.84896265	      9.33315183
      1.07000000	     24.06790085	     -4.32445204	     -3.54412127	     -0.37768413	      0.88517227	     -0.01332410	    -45.80282386	      3.74947799	      9.37226596	    -13.70625986	      7.73582230	     18.65055132	     45.34733228	     -2.97471759	      0.24588261	     13.93237631	    -11.38112986	     -8.76485270	    -35.94658797	     29.94241262	    -32.13195799	      2.53065975	      9.29741018
      1.07500000	     24.21682789	     -4.13767826	     -3.68870920	     -0.37036106	      0.88641816	     -0.01280053	    -45.31927487	      3.49949345	      8.49467864	    -15.68379555	      6.56729929	     19.77802660	     45.62539067	     -3.56991124	      0.48420549	     13.86473198	    -11.51949754	     -9.04930660	    -35.66250271	     29.81240704	    -32.22476628	      2.10169656	      9.24851017
      1.08000000	     24.25132524	     -3.95692762	     -3.79266905	     -0.36303377	      0.88756042	     -0.01234920	    -44.62891610	      3.26893083	      7.51964330	    -17.78905617	      5.30912515	     20.87998665	     46.02083199	     -4.02318640	      0.71331849	     13.90480792	    -11.70411363	     -9.19528729	    -35.40045994	     29.64839965	    -32.19457402	      1.71185740	      9.16716716
      1.08500000	     24.30241650	     -3.74870893	     -3.89604561	     -0.35570846	      0.88874783	     -0.01192046	    -43.90711644	      2.97976732	      6.47698397	    -19.93549992	      3.91910057	     21.90095462	     46.49584615	     -4.52302561	      0.97150237	     13.95692486	    -11.83472858	     -9.29862981	    -35.15929927	     29.43680370	    -32.17788572	      1.29742920	      9.07448825
      1.09000000	     24.33175867	     -3.50874871	     -4.01705869	     -0.34835354	      0.88991705	     -0.01148822	    -43.11217622	      2.61833783	      5.39589469	    -22.13051196	      2.46371110	     22.80174080	     47.13569891	     -5.04717439	      1.26184538	     14.04589474	    -11.87267026	     -9.30838519	    -34.99051049	     29.10390573	    -32.13147626	      0.84945358	      8.98061239
      1.09500000	     24.35227389	     -3.27451625	     -4.08987969	     -0.34104731	      0.89110135	     -0.01116588	    -42.27215438	      2.25773113	      4.28116022	    -24.33030262	      0.87899329	     23.48975248	     47.74586813	     -5.55771333	      1.54716683	     14.19528208	    -11.91401129	     -9.33639366	    -34.85674564	     28.72767111	    -32.08100133	      0.43910373	      8.85235491
      1.10000000	     24.41398048	     -3.03586855	     -4.15689357	     -0.33380870	      0.89235475	     -0.01089542	    -41.46218539	      1.86698334	      3.19613641	    -26.46527058	     -0.91533049	     23.54460253	     51.32825983	     -6.15238481	      1.85123839	     14.42639198	    -11.88118763	     -9.39692568	    -34.88643499	     25.74574506	    -32.08182567	      0.03169469	      8.72497689
      1.10500000	     24.41587151	     -2.80444750	     -4.18600417	     -0.32656620	      0.89350338	     -0.01069459	    -40.54738255	      1.47218927	      2.09577351	    -28.66319906	     -2.47872368	     23.76853396	     51.29955713	     -6.65953691	      2.12724945	     14.60086157	    -11.88916086	     -9.23756202	    -34.62325830	     25.65736841	    -32.01719734	     -0.33945393	      8.57874341
      1.11000000	     24.41035330	     -2.56724138	     -4.22778434	     -0.31932189	      0.89465082	     -0.01053178	    -39.61179874	      1.03035704	      1.04494319	    -30.82686011	     -3.98314577	     23.81724463	     51.21956271	     -7.21328833	      2.41275557	     14.81887994	    -11.78169017	     -9.14250718	    -34.60636856	     25.46698907	    -31.94374366	     -0.71091329	      8.42205261
      1.11500000	     24.36137523	     -2.33246342	     -4.01943253	     -0.31249274	      0.89563954	     -0.01084936	    -38.58762960	      0.71311655	     -0.15344585	    -33.00007130	     -5.33468839	     23.66447287	     50.93189089	     -7.63512902	      2.69927051	     15.45695066	    -11.76730979	     -9.21916136	    -35.04805768	     24.94457377	    -31.87899916	     -0.93875437	      8.08472906
      1.12000000	     24.31302874	     -2.14431985	     -3.76105546	     -0.30571686	      0.89667794	     -0.01123131	    -37.58657111	      0.46436912	     -1.23565965	    -35.05422065	     -6.64050656	     23.07109128	     50.65335596	     -8.08573268	      2.91159980	     16.13959420	    -11.70020259	     -9.15849562	    -35.17432300	     24.73003772	    -31.82689098	     -1.09087702	      7.72316607
      1.12500000	     24.26825402	     -1.94707467	     -3.53779242	     -0.29898050	      0.89771283	     -0.01164779	    -36.56753298	      0.15359962	     -2.26295343	    -37.10311931	     -7.66393714	     22.34822600	     49.53128592	     -8.61431740	      3.14525732	     16.89195794	    -11.46314790	     -9.56677658	    -36.09456323	     23.82199051	    -31.77872181	     -1.25674900	      7.39838604
      1.13000000	     24.25764081	     -1.77202930	     -3.22447035	     -0.29232043	      0.89876258	     -0.01225248	    -35.60811028	     -0.11381394	     -3.29800888	    -39.05214621	     -8.45269790	     21.71159876	     46.59341614	     -9.15650708	      3.34424627	     17.69297937	    -11.29355614	     -9.53297708	    -36.58031251	     22.26117940	    -31.78252064	     -1.34623411	      6.99855809
      1.13500000	     24.16122355	     -1.64726583	     -2.94227577	     -0.28571428	      0.89972371	     -0.01280506	    -34.54045859	     -0.33462315	     -4.16420713	    -40.94450307	     -9.03516844	     20.55356765	     46.26354393	     -9.57278318	      3.47057220	     18.28147196	    -11.19684310	     -9.27162320	    -36.59924666	     22.18922505	    -31.70169734	     -1.39019717	      6.65978584
      1.14000000	     24.16333071	     -1.56912943	     -2.67918779	     -0.27919323	      0.90082698	     -0.01336568	    -33.59342251	     -0.52423010	     -4.92613399	    -42.71538468	     -9.44754737	     19.05293661	     45.17678353	    -10.16533152	      3.54930739	     18.88006563	    -10.94522598	     -9.34607627	    -37.25397597	     21.80265182	    -31.73519495	     -1.39305946	      6.38379307
      1.14500000	     24.04277225	     -1.46054107	     -2.30087666	     -0.27272733	      0.90173046	     -0.01425124	    -32.50114924	     -0.72355601	     -5.79556356	    -44.48887394	     -9.37535247	     18.21600763	     41.04169432	    -10.63421369	      3.64737220	     19.78952498	    -10.64426484	     -9.62959978	    -38.13818177	     20.70789534	    -31.64621706	     -1.33893204	      5.96728181
      1.15000000	     24.03280748	     -1.44652782	     -1.95331341	     -0.26635038	      0.90281423	     -0.01497407	    -31.56491591	     -0.79607159	     -6.47181848	    -46.04285619	     -9.27449581	     16.44098768	     40.59312194	    -11.19612640	      3.61767602	     20.35076487	    -10.42052609	     -9.31625221	    -38.15934719	     20.66564743	    -31.68564687	     -1.21819600	      5.64635880
